PathFileType	4	(x/y/z)	A01_T0012.trc
DataRate	CameraRate	NumFrames	NumMarkers	Units	OrigDataRate	OrigDataStartFrame	OrigNumFrames
240	240	4	47	mm	240	751	1200
Frame#	Time	R_AC			L_AC			R_ASIS			L_ASIS			R_PSIS			L_PSIS			R_GT			L_GT			R_IC			L_IC			SACRAL			R_THIGH_PROX_POST			L_THIGH_PROX_POST			R_THIGH_PROX_ANT			L_THIGH_PROX_ANT			R_THIGH_DIST_POST			L_THIGH_DIST_POST			R_THIGH_DIST_ANT			L_THIGH_DIST_ANT			R_LAT_KNEE			R_MED_KNEE			L_LAT_KNEE			L_MED_KNEE			L_PROS_PROX_ANT			L_PROS_PROX_POST			L_PROS_DIST_ANT			L_PROS_DIST_POST			R_LL_PROX_ANT			R_LL_PROX_POST			R_LL_DIST_POST			R_LL_DIST_ANT			R_LAT_ANK			R_MED_ANK			L_MED_ANK			L_LAT_ANK			L_TOE			R_TOE			L_5TH_MET			L_1ST_MET			R_1ST_MET			R_5TH_MET			R_HEEL_SUP			L_HEEL_SUP			R_HEEL_LAT			L_HEEL_LAT			L_HEEL_MED			R_HEEL_MED			
		X1	Y1	Z1	X2	Y2	Z2	X3	Y3	Z3	X4	Y4	Z4	X5	Y5	Z5	X6	Y6	Z6	X7	Y7	Z7	X8	Y8	Z8	X9	Y9	Z9	X10	Y10	Z10	X11	Y11	Z11	X12	Y12	Z12	X13	Y13	Z13	X14	Y14	Z14	X15	Y15	Z15	X16	Y16	Z16	X17	Y17	Z17	X18	Y18	Z18	X19	Y19	Z19	X20	Y20	Z20	X21	Y21	Z21	X22	Y22	Z22	X23	Y23	Z23	X24	Y24	Z24	X25	Y25	Z25	X26	Y26	Z26	X27	Y27	Z27	X28	Y28	Z28	X29	Y29	Z29	X30	Y30	Z30	X31	Y31	Z31	X32	Y32	Z32	X33	Y33	Z33	X34	Y34	Z34	X35	Y35	Z35	X36	Y36	Z36	X37	Y37	Z37	X38	Y38	Z38	X39	Y39	Z39	X40	Y40	Z40	X41	Y41	Z41	X42	Y42	Z42	X43	Y43	Z43	X44	Y44	Z44	X45	Y45	Z45	X46	Y46	Z46	X47	Y47	Z47	

751	3.1276	597.12	1573.6	537.53	649.59	1588.3	116.91	700.56	1083.1	528.56	766.49	1068.3	174.54	510.89	1077.6	364.11	540.77	1090.6	238.57	635.43	969.34	551.17	717.33	977.51	118.81	641.91	1179.6	536.35	727.11	1172.5	132.33	511.26	1054.8	294.2	600.78	841.56	529.29	715.83	837.49	127.46	667.68	864.36	545.59	780.77	833.53	158.05	611.87	753	525.83	727.43	762.16	137.26	676.16	773	543.17	787.4	759.67	163.83	639.96	562.13	505.24	689.55	551.84	380.48	723.99	582.06	155.05	737.36	554.43	310.8	749.62	490.74	159.4	696.54	503.86	147.86	729	438.04	159.56	676.28	443.93	149.3	579.68	386.09	530.02	516.93	404.32	496.84	521.43	321.23	496.18	572.24	311.01	518	522.3	110.92	490.84	560.01	115.64	390.63	599.23	147.48	201.13	571.48	152.2	134.2	793.8	75.269	150.86	766.41	72.157	470.01	679.76	54.335	78.604	710.93	57.481	206.33	690.41	57.597	410.92	641.47	45.769	539	439.8	70.012	420.6	474.92	110.05	165.52	443.19	45.537	456.15	480.42	81.269	134.07	489.31	78.663	196.73	454.2	44.611	394.58
752	3.1318	597.06	1573.6	537.46	649.52	1588.3	116.84	700.52	1083.1	528.5	766.47	1068.3	174.49	510.87	1077.6	364.04	540.74	1090.6	238.5	635.4	969.34	551.12	717.32	977.5	118.76	641.87	1179.6	536.29	727.1	1172.5	132.28	511.24	1054.8	294.13	600.78	841.56	529.25	715.82	837.48	127.41	667.68	864.36	545.53	780.74	833.52	158	611.88	752.99	525.8	727.42	762.14	137.21	676.17	773.01	543.12	787.38	759.66	163.78	639.99	562.12	505.22	689.57	551.83	380.46	723.98	582.05	155	737.33	554.41	310.76	749.6	490.73	159.36	696.53	503.84	147.82	728.98	438.02	159.53	676.27	443.92	149.27	579.7	386.09	530.01	516.95	404.32	496.83	521.45	321.23	496.18	572.26	311.01	518	522.3	110.92	490.84	560.01	115.64	390.63	599.22	147.47	201.12	571.47	152.19	134.18	793.8	75.273	150.86	766.41	72.157	470.01	679.76	54.326	78.599	710.92	57.481	206.33	690.41	57.597	410.92	641.47	45.768	539	439.81	70.011	420.6	474.91	110.03	165.51	443.19	45.536	456.15	480.41	81.241	134.07	489.3	78.645	196.71	454.2	44.611	394.58
753	3.1359	597	1573.6	537.38	649.45	1588.3	116.77	700.48	1083.1	528.45	766.46	1068.3	174.44	510.84	1077.6	363.98	540.72	1090.5	238.43	635.38	969.34	551.08	717.3	977.49	118.71	641.82	1179.6	536.23	727.08	1172.5	132.24	511.23	1054.8	294.06	600.79	841.56	529.2	715.8	837.47	127.36	667.68	864.36	545.47	780.72	833.51	157.96	611.89	752.99	525.76	727.41	762.13	137.16	676.19	773.02	543.08	787.37	759.65	163.73	640.03	562.12	505.21	689.59	551.82	380.44	723.97	582.05	154.96	737.3	554.4	310.72	749.59	490.71	159.32	696.52	503.83	147.77	728.97	438.01	159.49	676.26	443.91	149.23	579.72	386.09	530.01	516.98	404.32	496.82	521.47	321.23	496.17	572.28	311.01	517.99	522.3	110.91	490.83	560.01	115.64	390.62	599.21	147.46	201.1	571.47	152.18	134.17	793.79	75.277	150.86	766.41	72.157	470.01	679.75	54.318	78.594	710.92	57.481	206.32	690.41	57.597	410.92	641.47	45.767	539	439.81	70.01	420.6	474.9	110	165.49	443.19	45.534	456.15	480.4	81.212	134.06	489.28	78.626	196.7	454.2	44.612	394.58
754	3.1401	596.95	1573.7	537.3	649.39	1588.3	116.7	700.44	1083.1	528.39	766.44	1068.3	174.38	510.81	1077.6	363.91	540.7	1090.5	238.36	635.36	969.33	551.03	717.29	977.48	118.66	641.77	1179.6	536.17	727.06	1172.5	132.19	511.21	1054.7	294	600.79	841.56	529.16	715.79	837.45	127.31	667.68	864.36	545.41	780.69	833.49	157.91	611.91	752.99	525.73	727.4	762.11	137.11	676.2	773.03	543.03	787.35	759.64	163.68	640.06	562.12	505.19	689.62	551.81	380.42	723.96	582.04	154.92	737.26	554.39	310.68	749.58	490.7	159.28	696.5	503.81	147.73	728.96	437.99	159.46	676.24	443.9	149.2	579.74	386.09	530	517	404.32	496.81	521.48	321.23	496.17	572.29	311	517.99	522.3	110.91	490.83	560.01	115.64	390.62	599.2	147.45	201.09	571.46	152.16	134.15	793.79	75.281	150.86	766.41	72.157	470.01	679.75	54.31	78.59	710.91	57.481	206.32	690.41	57.597	410.92	641.47	45.766	539	439.81	70.008	420.61	474.89	109.98	165.48	443.19	45.533	456.15	480.39	81.183	134.06	489.27	78.608	196.69	454.2	44.613	394.58
